<svg width="560" height="140" viewBox="0 0 560 140" fill="none" xmlns="http://www.w3.org/2000/svg">
<path d="M502.976 111.843H474.704V28.4121H503.546C511.83 28.4121 518.945 30.0824 524.893 33.4229C530.868 36.7362 535.458 41.5025 538.663 47.7219C541.867 53.9412 543.47 61.3826 543.47 70.0462C543.47 78.7369 541.854 86.2055 538.622 92.452C535.417 98.6985 530.787 103.492 524.73 106.832C518.701 110.173 511.45 111.843 502.976 111.843ZM489.818 98.7664H502.243C508.055 98.7664 512.903 97.7072 516.786 95.5888C520.67 93.4433 523.59 90.2522 525.545 86.0154C527.5 81.7515 528.478 76.4285 528.478 70.0462C528.478 63.6639 527.5 58.368 525.545 54.1584C523.59 49.9217 520.697 46.7577 516.868 44.6665C513.066 42.5481 508.34 41.489 502.691 41.489H489.818V98.7664Z" fill="url(#paint0_linear_27_29)"/>
<path d="M458.338 28.4121V111.843H443.224V28.4121H458.338Z" fill="url(#paint1_linear_27_29)"/>
<path d="M391.466 111.843V58.209H403.723V67.148H404.281C405.259 64.052 406.935 61.6659 409.309 59.9898C411.707 58.2905 414.442 57.4408 417.515 57.4408C418.214 57.4408 418.993 57.4757 419.855 57.5455C420.739 57.5921 421.473 57.6736 422.055 57.79V69.4177C421.519 69.2315 420.67 69.0685 419.506 68.9289C418.365 68.7659 417.259 68.6844 416.188 68.6844C413.884 68.6844 411.812 69.1849 409.973 70.1859C408.157 71.1636 406.726 72.5254 405.678 74.2714C404.63 76.0173 404.107 78.0309 404.107 80.3122V111.843H391.466Z" fill="#0F3C3F"/>
<path d="M380.895 58.209V67.9861H350.062V58.209H380.895ZM357.674 45.3591H370.314V95.7111C370.314 97.4105 370.57 98.7141 371.083 99.6219C371.618 100.507 372.316 101.112 373.178 101.438C374.039 101.764 374.993 101.927 376.041 101.927C376.832 101.927 377.554 101.868 378.206 101.752C378.881 101.636 379.393 101.531 379.742 101.438L381.872 111.32C381.197 111.552 380.231 111.808 378.974 112.088C377.74 112.367 376.227 112.53 374.435 112.577C371.269 112.67 368.417 112.192 365.88 111.145C363.342 110.074 361.329 108.421 359.839 106.187C358.372 103.952 357.651 101.158 357.674 97.8062V45.3591Z" fill="#0F3C3F"/>
<path d="M292.656 131.956V58.2091H305.087V67.0783H305.821C306.472 65.7747 307.392 64.3896 308.579 62.9231C309.766 61.4332 311.373 60.1645 313.398 59.117C315.423 58.0462 318.007 57.5107 321.15 57.5107C325.293 57.5107 329.03 58.5699 332.358 60.6883C335.711 62.7834 338.364 65.8911 340.32 70.0114C342.298 74.1085 343.288 79.1367 343.288 85.0961C343.288 90.9856 342.322 95.9906 340.39 100.111C338.457 104.231 335.827 107.374 332.498 109.539C329.169 111.704 325.398 112.786 321.185 112.786C318.112 112.786 315.563 112.274 313.538 111.25C311.512 110.226 309.883 108.992 308.649 107.548C307.439 106.082 306.496 104.697 305.821 103.393H305.297V131.956H292.656ZM305.052 85.0263C305.052 88.4948 305.541 91.5327 306.519 94.1399C307.52 96.7471 308.952 98.784 310.814 100.251C312.7 101.694 314.981 102.415 317.658 102.415C320.451 102.415 322.791 101.671 324.676 100.181C326.562 98.6676 327.982 96.6074 328.936 94.0002C329.914 91.3697 330.403 88.3784 330.403 85.0263C330.403 81.6974 329.926 78.741 328.971 76.157C328.017 73.5731 326.597 71.5478 324.711 70.0813C322.826 68.6147 320.475 67.8814 317.658 67.8814C314.958 67.8814 312.665 68.5914 310.779 70.0114C308.893 71.4314 307.462 73.4218 306.484 75.9824C305.53 78.5431 305.052 81.5577 305.052 85.0263Z" fill="#0F3C3F"/>
<path d="M251.628 112.926C248.229 112.926 245.168 112.321 242.444 111.11C239.744 109.876 237.602 108.061 236.019 105.663C234.46 103.265 233.68 100.309 233.68 96.7937C233.68 93.7674 234.239 91.265 235.356 89.2863C236.473 87.3076 237.998 85.7246 239.93 84.5374C241.862 83.3502 244.039 82.454 246.46 81.8487C248.904 81.2202 251.43 80.7662 254.037 80.4869C257.18 80.161 259.729 79.87 261.684 79.6139C263.64 79.3346 265.06 78.9156 265.944 78.3569C266.852 77.7749 267.306 76.8787 267.306 75.6682V75.4587C267.306 72.8282 266.526 70.7913 264.966 69.348C263.407 67.9047 261.16 67.1831 258.227 67.1831C255.131 67.1831 252.675 67.8582 250.86 69.2083C249.067 70.5585 247.857 72.1531 247.228 73.9921L235.426 72.316C236.357 69.057 237.893 66.3334 240.035 64.1452C242.177 61.9337 244.795 60.2809 247.891 59.1868C250.988 58.0694 254.41 57.5107 258.157 57.5107C260.741 57.5107 263.314 57.8134 265.874 58.4186C268.435 59.0239 270.775 60.0248 272.893 61.4216C275.011 62.795 276.711 64.669 277.991 67.0434C279.295 69.4178 279.946 72.3859 279.946 75.9475V111.843H267.795V104.476H267.376C266.608 105.966 265.525 107.362 264.128 108.666C262.755 109.946 261.021 110.982 258.926 111.774C256.854 112.542 254.421 112.926 251.628 112.926ZM254.91 103.638C257.447 103.638 259.647 103.137 261.51 102.136C263.372 101.112 264.804 99.7617 265.805 98.0856C266.829 96.4096 267.341 94.5822 267.341 92.6035V86.2833C266.945 86.6092 266.27 86.9118 265.316 87.1912C264.385 87.4705 263.337 87.715 262.173 87.9245C261.009 88.134 259.857 88.3202 258.716 88.4832C257.575 88.6461 256.586 88.7858 255.748 88.9022C253.863 89.1582 252.175 89.5773 250.685 90.1592C249.195 90.7412 248.02 91.556 247.158 92.6035C246.297 93.6278 245.866 94.9546 245.866 96.5842C245.866 98.912 246.716 100.67 248.415 101.857C250.115 103.044 252.28 103.638 254.91 103.638Z" fill="#0F3C3F"/>
<path d="M224.087 56.562H208.852C208.417 54.0634 207.616 51.85 206.448 49.9217C205.28 47.9663 203.827 46.3096 202.089 44.9517C200.351 43.5938 198.368 42.5753 196.141 41.8964C193.941 41.1903 191.565 40.8372 189.012 40.8372C184.477 40.8372 180.457 41.9778 176.954 44.2592C173.45 46.5133 170.707 49.8267 168.725 54.1992C166.742 58.5446 165.751 63.8541 165.751 70.1277C165.751 76.51 166.742 81.8874 168.725 86.2599C170.734 90.6053 173.477 93.8914 176.954 96.1184C180.457 98.3183 184.463 99.4182 188.971 99.4182C191.47 99.4182 193.806 99.0923 195.978 98.4405C198.178 97.7615 200.147 96.7703 201.885 95.4666C203.651 94.163 205.131 92.5607 206.326 90.6596C207.548 88.7585 208.39 86.5858 208.852 84.1415L224.087 84.223C223.517 88.1881 222.281 91.9089 220.38 95.3852C218.506 98.8615 216.049 101.93 213.007 104.592C209.965 107.226 206.407 109.29 202.333 110.784C198.26 112.251 193.738 112.984 188.768 112.984C181.435 112.984 174.89 111.287 169.132 107.892C163.375 104.497 158.839 99.5947 155.526 93.1853C152.212 86.7759 150.556 79.09 150.556 70.1277C150.556 61.1382 152.226 53.4523 155.566 47.0701C158.907 40.6607 163.456 35.7585 169.214 32.3637C174.971 28.9689 181.489 27.2715 188.768 27.2715C193.412 27.2715 197.73 27.9233 201.722 29.2269C205.715 30.5305 209.272 32.4452 212.396 34.9709C215.519 37.4695 218.085 40.5384 220.095 44.1777C222.132 47.7898 223.463 51.9179 224.087 56.562Z" fill="#0F3C3F"/>
<circle cx="70.7047" cy="69.5967" r="16.5631" stroke="#FF8473" stroke-width="4"/>
<path d="M51.3889 85.3682C52.1741 86.9073 51.0586 88.7566 49.381 88.6969L36.2384 88.2298L20.816 87.6815C19.9153 87.6495 19.1238 87.0463 18.8541 86.1538C17.0443 80.166 16.1684 73.7594 16.4042 67.1239C16.7647 56.9821 19.6726 47.5562 24.4626 39.4839C25.3155 38.0467 27.3134 38.1714 28.0727 39.66L51.3889 85.3682Z" fill="url(#paint2_radial_27_29)"/>
<path d="M74.3426 92.1798C76.069 92.2512 77.1327 94.1307 76.2574 95.5631L69.3998 106.784L61.3528 119.952C60.8828 120.721 59.9688 121.115 59.0588 120.912C52.9536 119.55 46.9417 117.169 41.2762 113.706C32.6169 108.415 25.8317 101.255 21.1495 93.1195C20.3159 91.671 21.4052 89.9915 23.0748 90.0606L74.3426 92.1798Z" fill="url(#paint3_radial_27_29)"/>
<path d="M93.3043 76.99C94.2432 75.5395 96.4025 75.5789 97.1911 77.0608L103.369 88.6704L110.618 102.294C111.042 103.089 110.916 104.077 110.278 104.757C106.002 109.322 100.896 113.289 95.034 116.408C86.0752 121.175 76.4604 123.379 67.0744 123.276C65.4033 123.257 64.5107 121.466 65.4189 120.063L93.3043 76.99Z" fill="url(#paint4_radial_27_29)"/>
<path d="M89.2583 53.8407C88.4617 52.3074 89.5634 50.4499 91.2414 50.497L104.387 50.8664L119.813 51.2997C120.714 51.325 121.51 51.9223 121.786 52.8128C123.641 58.787 124.564 65.1869 124.378 71.824C124.093 81.9682 121.255 91.4154 116.526 99.5232C115.683 100.967 113.685 100.857 112.914 99.3739L89.2583 53.8407Z" fill="url(#paint5_radial_27_29)"/>
<path d="M66.6459 45.9978C64.9191 45.9378 63.8431 44.0653 64.709 42.6272L71.4924 31.3608L79.4525 18.1402C79.9174 17.368 80.8288 16.9685 81.7401 17.1655C87.8542 18.4873 93.8816 20.8289 99.5698 24.2537C108.264 29.4883 115.096 36.6032 119.832 44.7075C120.675 46.1505 119.597 47.8372 117.927 47.7791L66.6459 45.9978Z" fill="url(#paint6_radial_27_29)"/>
<path d="M47.5716 63.065C46.6297 64.5136 44.4705 64.4698 43.6849 62.9863L37.5306 51.3644L30.3087 37.7264C29.8869 36.9299 30.0146 35.943 30.6534 35.2638C34.939 30.7072 40.0535 26.7507 45.9212 23.6435C54.8896 18.8943 64.5089 16.7099 73.8947 16.832C75.5657 16.8538 76.4548 18.6474 75.5437 20.0483L47.5716 63.065Z" fill="url(#paint7_radial_27_29)"/>
<path d="M75.3152 59.5899C75.9181 59.904 76.479 60.2692 76.9961 60.6766L73.3715 63.632C73.2357 63.5571 73.0968 63.4857 72.9536 63.42C69.8191 61.9836 66.1136 63.3601 64.6772 66.4947C64.0093 67.9521 63.95 69.5328 64.3924 70.9517L60.7711 73.905C59.4416 71.2521 59.2172 68.0735 60.3877 65.1353L60.6045 64.6283C63.0717 59.2445 69.4362 56.8801 74.82 59.3473L75.3152 59.5899Z" fill="#FF8473"/>
<defs>
<linearGradient id="paint0_linear_27_29" x1="477.988" y1="71.4196" x2="544.21" y2="71.4196" gradientUnits="userSpaceOnUse">
<stop stop-color="#FF8473"/>
<stop offset="1" stop-color="#FFAE96"/>
</linearGradient>
<linearGradient id="paint1_linear_27_29" x1="459.593" y1="76.9382" x2="444.877" y2="76.9382" gradientUnits="userSpaceOnUse">
<stop stop-color="#FF8473"/>
<stop offset="1" stop-color="#FFAE96"/>
</linearGradient>
<radialGradient id="paint2_radial_27_29" cx="0" cy="0" r="1" gradientTransform="matrix(-19.4913 -14.8505 15.0601 -18.5931 50.2853 87.2316)" gradientUnits="userSpaceOnUse">
<stop stop-color="#FFAE96"/>
<stop offset="0.0001" stop-color="#FFAA93"/>
<stop offset="1" stop-color="#FF8473"/>
</radialGradient>
<radialGradient id="paint3_radial_27_29" cx="0" cy="0" r="1" gradientTransform="matrix(-27.8447 9.74563 -8.70404 -27.46 74.4174 94.6569)" gradientUnits="userSpaceOnUse">
<stop stop-color="#FFAE96"/>
<stop offset="0.0001" stop-color="#FFAA93"/>
<stop offset="1" stop-color="#FF8473"/>
</radialGradient>
<radialGradient id="paint4_radial_27_29" cx="0" cy="0" r="1" gradientTransform="matrix(-4.17669 31.5573 -30.6796 -4.99229 94.8368 75.1656)" gradientUnits="userSpaceOnUse">
<stop stop-color="#FFAE96"/>
<stop offset="1" stop-color="#FF8473"/>
</radialGradient>
<radialGradient id="paint5_radial_27_29" cx="0" cy="0" r="1" gradientTransform="matrix(24.5961 16.7068 -17.02 23.5217 89.2679 52.4258)" gradientUnits="userSpaceOnUse">
<stop stop-color="#FFAE96"/>
<stop offset="0.0001" stop-color="#FFAA93"/>
<stop offset="1" stop-color="#FF8473"/>
</radialGradient>
<radialGradient id="paint6_radial_27_29" cx="0" cy="0" r="1" gradientTransform="matrix(30.6291 -11.1379 9.9821 30.2181 63.2795 45.4646)" gradientUnits="userSpaceOnUse">
<stop stop-color="#FFAE96"/>
<stop offset="0.0001" stop-color="#FFAA93"/>
<stop offset="1" stop-color="#FF8473"/>
</radialGradient>
<radialGradient id="paint7_radial_27_29" cx="0" cy="0" r="1" gradientTransform="matrix(5.10485 -18.099 17.5171 5.50767 45.6444 60.7792)" gradientUnits="userSpaceOnUse">
<stop stop-color="#FFAE96"/>
<stop offset="0.0001" stop-color="#FFAA93"/>
<stop offset="1" stop-color="#FF8473"/>
</radialGradient>
</defs>
</svg>
