<svg width="393" height="105" viewBox="0 0 393 105" fill="none" xmlns="http://www.w3.org/2000/svg">
<path d="M352.42 84.5717H324.148V1.14062H352.991C361.274 1.14062 368.39 2.81088 374.337 6.15138C380.312 9.46472 384.902 14.2311 388.107 20.4504C391.312 26.6697 392.914 34.1111 392.914 42.7747C392.914 51.4655 391.298 58.9341 388.066 65.1805C384.861 71.427 380.231 76.2205 374.175 79.561C368.145 82.9015 360.894 84.5717 352.42 84.5717ZM339.262 71.4949H351.687C357.499 71.4949 362.347 70.4357 366.231 68.3173C370.114 66.1718 373.034 62.9807 374.989 58.7439C376.945 54.48 377.922 49.157 377.922 42.7747C377.922 36.3924 376.945 31.0965 374.989 26.8869C373.034 22.6502 370.141 19.4862 366.312 17.395C362.51 15.2767 357.784 14.2175 352.135 14.2175H339.262V71.4949Z" fill="url(#paint0_linear_21_493)"/>
<path d="M307.782 1.14062V84.5717H292.668V1.14062H307.782Z" fill="url(#paint1_linear_21_493)"/>
<path d="M240.911 84.5718V30.9375H253.167V39.8766H253.726C254.703 36.7805 256.379 34.3944 258.754 32.7183C261.152 31.019 263.887 30.1693 266.96 30.1693C267.658 30.1693 268.438 30.2042 269.299 30.2741C270.184 30.3206 270.917 30.4021 271.499 30.5185V42.1462C270.964 41.96 270.114 41.7971 268.95 41.6574C267.809 41.4944 266.704 41.413 265.633 41.413C263.328 41.413 261.256 41.9135 259.417 42.9144C257.602 43.8922 256.17 45.254 255.122 46.9999C254.075 48.7458 253.551 50.7594 253.551 53.0407V84.5718H240.911Z" fill="#0F3C3F"/>
<path d="M230.339 30.9375V40.7146H199.506V30.9375H230.339ZM207.118 18.0876H219.759V68.4396C219.759 70.139 220.015 71.4426 220.527 72.3505C221.062 73.2351 221.761 73.8403 222.622 74.1662C223.483 74.4921 224.438 74.6551 225.485 74.6551C226.277 74.6551 226.998 74.5969 227.65 74.4805C228.325 74.3641 228.837 74.2593 229.187 74.1662L231.317 84.048C230.642 84.2808 229.676 84.5369 228.418 84.8162C227.185 85.0956 225.672 85.2585 223.879 85.3051C220.713 85.3982 217.862 84.921 215.324 83.8735C212.787 82.8026 210.773 81.1498 209.283 78.9151C207.817 76.6803 207.095 73.8869 207.118 70.5347V18.0876Z" fill="#0F3C3F"/>
<path d="M142.101 104.685V30.9376H154.532V39.8068H155.265C155.917 38.5032 156.836 37.1181 158.024 35.6515C159.211 34.1617 160.817 32.893 162.842 31.8454C164.867 30.7746 167.451 30.2392 170.594 30.2392C174.738 30.2392 178.474 31.2984 181.803 33.4167C185.155 35.5118 187.809 38.6196 189.764 42.7399C191.743 46.837 192.732 51.8652 192.732 57.8245C192.732 63.7141 191.766 68.719 189.834 72.8393C187.902 76.9597 185.271 80.1023 181.942 82.2672C178.614 84.4322 174.842 85.5146 170.629 85.5146C167.556 85.5146 165.007 85.0025 162.982 83.9782C160.957 82.954 159.327 81.7202 158.093 80.2769C156.883 78.8103 155.94 77.4253 155.265 76.1217H154.741V104.685H142.101ZM154.497 57.7547C154.497 61.2232 154.986 64.2611 155.963 66.8683C156.964 69.4756 158.396 71.5125 160.258 72.979C162.144 74.4223 164.425 75.1439 167.102 75.1439C169.896 75.1439 172.235 74.399 174.121 72.9092C176.006 71.3961 177.426 69.3359 178.381 66.7287C179.359 64.0982 179.847 61.1068 179.847 57.7547C179.847 54.4258 179.37 51.4694 178.416 48.8855C177.461 46.3015 176.041 44.2763 174.156 42.8097C172.27 41.3432 169.919 40.6099 167.102 40.6099C164.402 40.6099 162.109 41.3199 160.223 42.7399C158.338 44.1599 156.906 46.1502 155.928 48.7109C154.974 51.2716 154.497 54.2862 154.497 57.7547Z" fill="#0F3C3F"/>
<path d="M101.072 85.6543C97.6734 85.6543 94.6122 85.0491 91.8886 83.8386C89.1883 82.6048 87.0466 80.7891 85.4637 78.3913C83.904 75.9936 83.1241 73.0372 83.1241 69.5221C83.1241 66.4959 83.6828 63.9934 84.8002 62.0147C85.9176 60.036 87.4424 58.4531 89.3745 57.2659C91.3066 56.0786 93.4832 55.1824 95.9042 54.5772C98.3485 53.9486 100.874 53.4947 103.481 53.2153C106.624 52.8894 109.173 52.5985 111.129 52.3424C113.084 52.063 114.504 51.644 115.389 51.0853C116.296 50.5034 116.75 49.6071 116.75 48.3966V48.1871C116.75 45.5566 115.97 43.5197 114.411 42.0765C112.851 40.6332 110.605 39.9115 107.672 39.9115C104.576 39.9115 102.12 40.5866 100.304 41.9368C98.5114 43.2869 97.3009 44.8815 96.6724 46.7206L84.8701 45.0445C85.8012 41.7855 87.3376 39.0619 89.4793 36.8736C91.6209 34.6622 94.2398 33.0094 97.3358 31.9153C100.432 30.7979 103.854 30.2392 107.602 30.2392C110.186 30.2392 112.758 30.5418 115.319 31.1471C117.879 31.7523 120.219 32.7533 122.337 34.15C124.456 35.5235 126.155 37.3974 127.435 39.7719C128.739 42.1463 129.391 45.1143 129.391 48.676V84.5719H117.239V77.2041H116.82C116.052 78.694 114.97 80.0907 113.573 81.3943C112.199 82.6746 110.465 83.7105 108.37 84.502C106.298 85.2702 103.866 85.6543 101.072 85.6543ZM104.354 76.3661C106.892 76.3661 109.092 75.8656 110.954 74.8646C112.816 73.8403 114.248 72.4902 115.249 70.8141C116.273 69.138 116.785 67.3106 116.785 65.332V59.0118C116.39 59.3377 115.714 59.6403 114.76 59.9196C113.829 60.199 112.781 60.4434 111.617 60.6529C110.453 60.8624 109.301 61.0487 108.16 61.2116C107.02 61.3746 106.03 61.5142 105.192 61.6306C103.307 61.8867 101.619 62.3057 100.129 62.8877C98.6395 63.4696 97.4639 64.2844 96.6026 65.332C95.7412 66.3562 95.3106 67.6831 95.3106 69.3126C95.3106 71.6405 96.1603 73.398 97.8596 74.5853C99.559 75.7725 101.724 76.3661 104.354 76.3661Z" fill="#0F3C3F"/>
<path d="M73.5318 29.2905H58.2959C57.8613 26.7919 57.0602 24.5785 55.8923 22.6502C54.7245 20.6948 53.2715 19.0382 51.5334 17.6802C49.7952 16.3223 47.8127 15.3039 45.5857 14.6249C43.3858 13.9188 41.0094 13.5657 38.4565 13.5657C33.9211 13.5657 29.9016 14.7064 26.3981 16.9877C22.8947 19.2418 20.1517 22.5552 18.1691 26.9277C16.1865 31.2731 15.1952 36.5826 15.1952 42.8562C15.1952 49.2385 16.1865 54.6159 18.1691 58.9884C20.1788 63.3338 22.9218 66.62 26.3981 68.847C29.9016 71.0468 33.9075 72.1467 38.4158 72.1467C40.9144 72.1467 43.25 71.8208 45.4227 71.169C47.6226 70.4901 49.5915 69.4988 51.3297 68.1952C53.095 66.8915 54.5751 65.2892 55.7701 63.3881C56.9923 61.487 57.8342 59.3143 58.2959 56.87L73.5318 56.9515C72.9615 60.9167 71.7258 64.6374 69.8247 68.1137C67.9507 71.59 65.4929 74.6589 62.4511 77.3204C59.4094 79.9548 55.8516 82.0189 51.7778 83.5126C47.704 84.9792 43.1821 85.7124 38.2121 85.7124C30.8793 85.7124 24.3341 84.015 18.5765 80.6202C12.8188 77.2254 8.28336 72.3233 4.97002 65.9138C1.65667 59.5044 0 51.8185 0 42.8562C0 33.8667 1.67025 26.1809 5.01076 19.7986C8.35126 13.3892 12.9003 8.48705 18.6579 5.09223C24.4156 1.69741 30.9336 0 38.2121 0C42.8562 0 47.1744 0.651804 51.1667 1.95541C55.1591 3.25903 58.7168 5.17371 61.8401 7.69946C64.9633 10.198 67.5298 13.267 69.5395 16.9062C71.5764 20.5183 72.9072 24.6464 73.5318 29.2905Z" fill="#0F3C3F"/>
<defs>
<linearGradient id="paint0_linear_21_493" x1="327.432" y1="44.1482" x2="393.655" y2="44.1482" gradientUnits="userSpaceOnUse">
<stop stop-color="#FF8473"/>
<stop offset="1" stop-color="#FFAE96"/>
</linearGradient>
<linearGradient id="paint1_linear_21_493" x1="309.037" y1="49.6667" x2="294.321" y2="49.6667" gradientUnits="userSpaceOnUse">
<stop stop-color="#FF8473"/>
<stop offset="1" stop-color="#FFAE96"/>
</linearGradient>
</defs>
</svg>
